# xmcd CD database file
#
# Track frame offsets:
#	182
#	11217
#	24522
#	37875
#	50235
#	63005
#	76557
#	90140
#	104102
#	116565
#	129780
#	142120
#	155582
#	170097
#	183900
#	197372
#	211007
#	225625
#	235847
#
# Disc length: 3327 seconds
#
# Revision: 0
# Processed by: cddbd v1.5PL3 Copyright (c) Steve Scherf et al.
# Submitted via: CDex 1.50Beta7
#
DISCID=ed0cfd13
DTITLE=Duke Ellington - 1947-1952 volume 3
DYEAR=1988
DGENRE=Jazz
TTITLE0=Let's go Blues
TTITLE1=You of all People
TTITLE2=Creole Love Call
TTITLE3=The Greatest There Is
TTITLE4=Snibor
TTITLE5=The World is Waiting for the Sunrise
TTITLE6=Joog, Joog
TTITLE7=Good Woman Blues
TTITLE8=On the Sunny side of the Street
TTITLE9=B-Sharp Boston
TTITLE10=Buid that Railroad
TTITLE11=Love you Madly
TTITLE12=Great Times
TTITLE13=Fancy Dan
TTITLE14=The Hawk Talks
TTITLE15=V.I.P's Boogie
TTITLE16=Jam with Sam
TTITLE17=Monologue (Pretty and the Wolf)
TTITLE18=Ting-A-Ling
EXTD=YEAR: 1988
EXTT0=
EXTT1=
EXTT2=
EXTT3=
EXTT4=
EXTT5=
EXTT6=
EXTT7=
EXTT8=
EXTT9=
EXTT10=
EXTT11=
EXTT12=
EXTT13=
EXTT14=
EXTT15=
EXTT16=
EXTT17=
EXTT18=
PLAYORDER=
